<svg xmlns="http://www.w3.org/2000/svg" viewBox="0 0 24.04 24.98"><defs><style>.cls-1{fill:#1C51A0;}</style></defs><title>Asset 1</title><g id="Layer_2" data-name="Layer 2"><g id="Layer_1-2" data-name="Layer 1"><path class="cls-1" d="M23.12,19.15l-.46-.27c-1.17-.7-2.37-1.41-3.51-2.17-1.54-1-2.6-.9-3.8.32a12.33,12.33,0,0,0-1.07,1.3l-.24.32a13.22,13.22,0,0,1-7.85-8.54L6.33,10c.33-.19.61-.34.87-.52,2-1.32,2.27-2.65,1-4.73A30.49,30.49,0,0,1,6.42,1.33C5.85.06,5-.32,4,.27A9,9,0,0,0,1.24,2.58a7.24,7.24,0,0,0-.5,7.28A28.37,28.37,0,0,0,13.67,24a9.32,9.32,0,0,0,3.81,1L18,25a6.17,6.17,0,0,0,5.63-3.17A1.75,1.75,0,0,0,23.12,19.15Z"/></g></g></svg>